<svg width="58" height="73" viewBox="0 0 58 73" fill="none" xmlns="http://www.w3.org/2000/svg">
<path fill-rule="evenodd" clip-rule="evenodd" d="M26.1083 72.0169C26.1083 72.0169 0.388672 50.3561 0.388672 29.0423C0.388672 21.5279 3.37378 14.3212 8.68731 9.00763C14.0008 3.6941 21.2075 0.708984 28.722 0.708984C36.2365 0.708984 43.4432 3.6941 48.7567 9.00763C54.0702 14.3212 57.0553 21.5279 57.0553 29.0423C57.0553 50.3561 31.3358 72.0169 31.3358 72.0169C29.9049 73.3344 27.5497 73.3202 26.1083 72.0169ZM28.722 41.4382C30.3498 41.4382 31.9618 41.1175 33.4657 40.4946C34.9696 39.8716 36.3361 38.9586 37.4872 37.8075C38.6382 36.6564 39.5513 35.2899 40.1743 33.786C40.7972 32.2821 41.1178 30.6702 41.1178 29.0423C41.1178 27.4145 40.7972 25.8026 40.1743 24.2986C39.5513 22.7947 38.6382 21.4282 37.4872 20.2771C36.3361 19.1261 34.9696 18.213 33.4657 17.5901C31.9618 16.9671 30.3498 16.6465 28.722 16.6465C25.4344 16.6465 22.2815 17.9525 19.9568 20.2771C17.6322 22.6018 16.3262 25.7547 16.3262 29.0423C16.3262 32.3299 17.6322 35.4828 19.9568 37.8075C22.2815 40.1322 25.4344 41.4382 28.722 41.4382Z" fill="#DEF2AF"/>
</svg>
