<svg width="57" height="73" viewBox="0 0 57 73" fill="none" xmlns="http://www.w3.org/2000/svg">
<path fill-rule="evenodd" clip-rule="evenodd" d="M25.7293 71.3079C25.7293 71.3079 0.00976562 49.6471 0.00976562 28.3333C0.00976562 20.8189 2.99488 13.6122 8.30841 8.29864C13.6219 2.98511 20.8286 0 28.3431 0C35.8576 0 43.0643 2.98511 48.3778 8.29864C53.6913 13.6122 56.6764 20.8189 56.6764 28.3333C56.6764 49.6471 30.9569 71.3079 30.9569 71.3079C29.526 72.6254 27.1708 72.6113 25.7293 71.3079ZM28.3431 40.7292C29.9709 40.7292 31.5828 40.4085 33.0868 39.7856C34.5907 39.1626 35.9572 38.2496 37.1083 37.0985C38.2593 35.9475 39.1724 34.5809 39.7954 33.077C40.4183 31.5731 40.7389 29.9612 40.7389 28.3333C40.7389 26.7055 40.4183 25.0936 39.7954 23.5897C39.1724 22.0857 38.2593 20.7192 37.1083 19.5682C35.9572 18.4171 34.5907 17.504 33.0868 16.8811C31.5828 16.2581 29.9709 15.9375 28.3431 15.9375C25.0555 15.9375 21.9026 17.2435 19.5779 19.5682C17.2533 21.8928 15.9473 25.0458 15.9473 28.3333C15.9473 31.6209 17.2533 34.7738 19.5779 37.0985C21.9026 39.4232 25.0555 40.7292 28.3431 40.7292Z" fill="url(#paint0_linear_191_31)"/>
<defs>
<linearGradient id="paint0_linear_191_31" x1="28.3431" y1="-1.55742e-08" x2="28.0098" y2="39.5" gradientUnits="userSpaceOnUse">
<stop stop-color="#DEF2AF"/>
<stop offset="1" stop-color="#C7C7C7"/>
</linearGradient>
</defs>
</svg>
