<svg width="57" height="73" viewBox="0 0 57 73" fill="none" xmlns="http://www.w3.org/2000/svg">
<path fill-rule="evenodd" clip-rule="evenodd" d="M25.7196 71.6614C25.7196 71.6614 0 50.0006 0 28.6868C0 21.1724 2.98511 13.9657 8.29864 8.65216C13.6122 3.33863 20.8189 0.353516 28.3333 0.353516C35.8478 0.353516 43.0545 3.33863 48.368 8.65216C53.6816 13.9657 56.6667 21.1724 56.6667 28.6868C56.6667 50.0006 30.9471 71.6614 30.9471 71.6614C29.5163 72.9789 27.161 72.9648 25.7196 71.6614ZM28.3333 41.0827C29.9612 41.0827 31.5731 40.7621 33.077 40.1391C34.5809 39.5162 35.9475 38.6031 37.0985 37.452C38.2496 36.301 39.1626 34.9345 39.7856 33.4305C40.4085 31.9266 40.7292 30.3147 40.7292 28.6868C40.7292 27.059 40.4085 25.4471 39.7856 23.9432C39.1626 22.4392 38.2496 21.0727 37.0985 19.9217C35.9475 18.7706 34.5809 17.8575 33.077 17.2346C31.5731 16.6116 29.9612 16.291 28.3333 16.291C25.0458 16.291 21.8928 17.597 19.5682 19.9217C17.2435 22.2463 15.9375 25.3993 15.9375 28.6868C15.9375 31.9744 17.2435 35.1274 19.5682 37.452C21.8928 39.7767 25.0458 41.0827 28.3333 41.0827Z" fill="url(#paint0_linear_191_41)"/>
<defs>
<linearGradient id="paint0_linear_191_41" x1="28" y1="4.99805" x2="28" y2="61.498" gradientUnits="userSpaceOnUse">
<stop stop-color="#DEF2AF"/>
<stop offset="1" stop-color="#C7C7C7"/>
</linearGradient>
</defs>
</svg>
