<svg width="57" height="73" viewBox="0 0 57 73" fill="none" xmlns="http://www.w3.org/2000/svg">
<path fill-rule="evenodd" clip-rule="evenodd" d="M25.8856 71.3919C25.8856 71.3919 0.166016 49.7311 0.166016 28.4173C0.166016 20.9029 3.15113 13.6962 8.46466 8.38263C13.7782 3.0691 20.9849 0.0839844 28.4993 0.0839844C36.0138 0.0839844 43.2205 3.0691 48.534 8.38263C53.8476 13.6962 56.8327 20.9029 56.8327 28.4173C56.8327 49.7311 31.1131 71.3919 31.1131 71.3919C29.6823 72.7094 27.3271 72.6952 25.8856 71.3919ZM28.4993 40.8132C30.1272 40.8132 31.7391 40.4925 33.243 39.8696C34.747 39.2466 36.1135 38.3336 37.2645 37.1825C38.4156 36.0314 39.3287 34.6649 39.9516 33.161C40.5746 31.6571 40.8952 30.0452 40.8952 28.4173C40.8952 26.7895 40.5746 25.1776 39.9516 23.6736C39.3287 22.1697 38.4156 20.8032 37.2645 19.6521C36.1135 18.5011 34.747 17.588 33.243 16.9651C31.7391 16.3421 30.1272 16.0215 28.4993 16.0215C25.2118 16.0215 22.0588 17.3275 19.7342 19.6521C17.4095 21.9768 16.1035 25.1297 16.1035 28.4173C16.1035 31.7049 17.4095 34.8578 19.7342 37.1825C22.0588 39.5072 25.2118 40.8132 28.4993 40.8132Z" fill="#F7F7F7"/>
</svg>
